<svg width="252" height="129" viewBox="0 0 252 129" fill="none" xmlns="http://www.w3.org/2000/svg">
<path d="M8.118 112.434H3.15V116.088H7.794V117.528H3.15V123H1.422V110.976H8.118V112.434ZM11.5703 123.234C10.7903 123.234 10.1663 123.006 9.69834 122.55C9.24234 122.094 9.01434 121.482 9.01434 120.714C9.01434 120.21 9.12234 119.784 9.33834 119.436C9.55434 119.088 9.83634 118.83 10.1843 118.662C10.8083 118.362 11.4623 118.212 12.1463 118.212C12.8303 118.212 13.4663 118.242 14.0543 118.302V116.898C14.0543 116.202 13.9343 115.728 13.6943 115.476C13.4663 115.212 13.0223 115.08 12.3623 115.08C11.7023 115.08 10.9163 115.242 10.0043 115.566L9.62634 114.432C9.97434 114.216 10.4303 114.042 10.9943 113.91C11.5703 113.778 12.0683 113.712 12.4883 113.712C13.6523 113.712 14.4743 113.964 14.9543 114.468C15.4343 114.972 15.6743 115.818 15.6743 117.006V121.38C15.6743 121.8 15.8183 122.01 16.1063 122.01C16.2983 122.01 16.5623 121.956 16.8983 121.848L17.1683 122.856C16.7603 123.12 16.2323 123.252 15.5843 123.252C14.9363 123.252 14.4683 122.946 14.1803 122.334C13.9163 122.586 13.5443 122.802 13.0643 122.982C12.5963 123.15 12.0983 123.234 11.5703 123.234ZM11.9123 121.956C12.6683 121.956 13.3823 121.74 14.0543 121.308V119.22C13.7663 119.172 13.2983 119.148 12.6503 119.148C11.2463 119.148 10.5383 119.616 10.5263 120.552C10.5263 121.488 10.9883 121.956 11.9123 121.956ZM22.9338 125.034C22.9338 125.982 22.2978 126.834 21.0258 127.59L20.2878 126.726C21.1278 126.138 21.5478 125.544 21.5478 124.944C21.5478 124.644 21.4398 124.29 21.2238 123.882H22.6458C22.8378 124.29 22.9338 124.674 22.9338 125.034ZM22.1598 123.27C20.9478 123.27 19.9458 122.874 19.1538 122.082C18.3618 121.278 17.9658 120.084 17.9658 118.5C17.9658 116.904 18.3618 115.71 19.1538 114.918C19.9458 114.114 20.9178 113.712 22.0698 113.712C22.8858 113.712 23.6298 113.886 24.3018 114.234L23.8158 115.386C23.1798 115.182 22.6098 115.08 22.1058 115.08C21.3978 115.08 20.8038 115.35 20.3238 115.89C19.8558 116.43 19.6218 117.294 19.6218 118.482C19.6218 120.75 20.5518 121.884 22.4118 121.884C22.9398 121.884 23.4978 121.806 24.0858 121.65L24.3558 122.838C23.5878 123.126 22.8558 123.27 22.1598 123.27ZM28.0235 123.234C27.2435 123.234 26.6195 123.006 26.1515 122.55C25.6955 122.094 25.4675 121.482 25.4675 120.714C25.4675 120.21 25.5755 119.784 25.7915 119.436C26.0075 119.088 26.2895 118.83 26.6375 118.662C27.2615 118.362 27.9155 118.212 28.5995 118.212C29.2835 118.212 29.9195 118.242 30.5075 118.302V116.898C30.5075 116.202 30.3875 115.728 30.1475 115.476C29.9195 115.212 29.4755 115.08 28.8155 115.08C28.1555 115.08 27.3695 115.242 26.4575 115.566L26.0795 114.432C26.4275 114.216 26.8835 114.042 27.4475 113.91C28.0235 113.778 28.5215 113.712 28.9415 113.712C30.1055 113.712 30.9275 113.964 31.4075 114.468C31.8875 114.972 32.1275 115.818 32.1275 117.006V121.38C32.1275 121.8 32.2715 122.01 32.5595 122.01C32.7515 122.01 33.0155 121.956 33.3515 121.848L33.6215 122.856C33.2135 123.12 32.6855 123.252 32.0375 123.252C31.3895 123.252 30.9215 122.946 30.6335 122.334C30.3695 122.586 29.9975 122.802 29.5175 122.982C29.0495 123.15 28.5515 123.234 28.0235 123.234ZM28.3655 121.956C29.1215 121.956 29.8355 121.74 30.5075 121.308V119.22C30.2195 119.172 29.7515 119.148 29.1035 119.148C27.6995 119.148 26.9915 119.616 26.9795 120.552C26.9795 121.488 27.4415 121.956 28.3655 121.956ZM38.4863 121.344C39.2783 121.692 40.0043 121.866 40.6643 121.866C41.3243 121.866 41.8043 121.746 42.1043 121.506C42.4163 121.254 42.5723 120.948 42.5723 120.588C42.5723 120.216 42.4223 119.904 42.1223 119.652C41.8343 119.4 41.4803 119.202 41.0603 119.058C40.6403 118.902 40.2143 118.74 39.7822 118.572C39.3623 118.404 39.0023 118.14 38.7023 117.78C38.4143 117.408 38.2703 116.946 38.2703 116.394C38.2703 115.578 38.5583 114.93 39.1343 114.45C39.7103 113.958 40.4903 113.712 41.4743 113.712C42.4583 113.712 43.2503 113.886 43.8503 114.234L43.4723 115.44C42.7763 115.2 42.1343 115.08 41.5463 115.08C40.9583 115.08 40.5203 115.188 40.2323 115.404C39.9443 115.62 39.8003 115.914 39.8003 116.286C39.8003 116.646 39.9503 116.946 40.2503 117.186C40.5503 117.426 40.9103 117.618 41.3303 117.762C41.7623 117.906 42.1883 118.068 42.6083 118.248C43.0283 118.416 43.3883 118.68 43.6883 119.04C43.9883 119.4 44.1383 119.85 44.1383 120.39C44.1383 121.182 43.8443 121.854 43.2563 122.406C42.6683 122.958 41.8283 123.234 40.7363 123.234C40.2323 123.234 39.7223 123.168 39.2063 123.036C38.7023 122.904 38.3243 122.748 38.0723 122.568L38.4863 121.344ZM48.5866 123.234C47.6026 123.234 46.9186 122.97 46.5346 122.442C46.1506 121.902 45.9586 121.134 45.9586 120.138V113.892H47.5786V120.102C47.5786 120.702 47.6566 121.146 47.8126 121.434C47.9686 121.71 48.2806 121.848 48.7486 121.848C49.2286 121.848 49.6906 121.776 50.1346 121.632C50.5906 121.476 50.9626 121.266 51.2506 121.002V113.946H52.8706V123.162H51.5566L51.3766 122.19C51.0286 122.478 50.6026 122.724 50.0986 122.928C49.5946 123.132 49.0906 123.234 48.5866 123.234ZM57.2383 123.234C56.4583 123.234 55.8343 123.006 55.3663 122.55C54.9103 122.094 54.6823 121.482 54.6823 120.714C54.6823 120.21 54.7903 119.784 55.0063 119.436C55.2223 119.088 55.5043 118.83 55.8523 118.662C56.4763 118.362 57.1303 118.212 57.8143 118.212C58.4983 118.212 59.1343 118.242 59.7223 118.302V116.898C59.7223 116.202 59.6023 115.728 59.3623 115.476C59.1343 115.212 58.6903 115.08 58.0303 115.08C57.3703 115.08 56.5843 115.242 55.6723 115.566L55.2943 114.432C55.6423 114.216 56.0983 114.042 56.6623 113.91C57.2383 113.778 57.7363 113.712 58.1563 113.712C59.3203 113.712 60.1423 113.964 60.6223 114.468C61.1023 114.972 61.3423 115.818 61.3423 117.006V121.38C61.3423 121.8 61.4863 122.01 61.7743 122.01C61.9663 122.01 62.2303 121.956 62.5663 121.848L62.8363 122.856C62.4283 123.12 61.9003 123.252 61.2523 123.252C60.6043 123.252 60.1363 122.946 59.8483 122.334C59.5843 122.586 59.2123 122.802 58.7323 122.982C58.2643 123.15 57.7663 123.234 57.2383 123.234ZM57.5803 121.956C58.3363 121.956 59.0503 121.74 59.7223 121.308V119.22C59.4343 119.172 58.9663 119.148 58.3183 119.148C56.9143 119.148 56.2063 119.616 56.1943 120.552C56.1943 121.488 56.6563 121.956 57.5803 121.956ZM69.4651 123H67.8451V113.892H69.1951L69.3751 115.242C69.5911 114.882 69.9451 114.54 70.4371 114.216C70.9411 113.88 71.5111 113.712 72.1471 113.712C72.4951 113.712 72.7591 113.742 72.9391 113.802L72.6151 115.098C72.5071 115.086 72.3511 115.08 72.1471 115.08C70.8391 115.08 69.9451 115.554 69.4651 116.502V123ZM77.4731 123.234C76.1291 123.234 75.1271 122.778 74.4671 121.866C73.8191 120.942 73.4951 119.79 73.4951 118.41C73.4951 117.018 73.8431 115.89 74.5391 115.026C75.2351 114.15 76.1891 113.712 77.4011 113.712C78.4211 113.712 79.1951 114 79.7231 114.576C80.2631 115.14 80.5331 115.89 80.5331 116.826C80.5331 117.246 80.4431 117.786 80.2631 118.446H74.9711C74.9951 119.466 75.2171 120.294 75.6371 120.93C76.0571 121.566 76.6811 121.884 77.5091 121.884C78.3491 121.884 79.1411 121.716 79.8851 121.38L80.2991 122.496C79.4351 122.988 78.4931 123.234 77.4731 123.234ZM79.0571 117.132C79.0571 116.484 78.9251 115.974 78.6611 115.602C78.3971 115.23 78.0311 115.044 77.5631 115.044C77.0951 115.044 76.7051 115.128 76.3931 115.296C76.0931 115.452 75.8591 115.656 75.6911 115.908C75.4031 116.388 75.2231 116.832 75.1511 117.24L79.0571 117.276V117.132ZM82.3437 121.344C83.1357 121.692 83.8617 121.866 84.5217 121.866C85.1817 121.866 85.6617 121.746 85.9617 121.506C86.2737 121.254 86.4297 120.948 86.4297 120.588C86.4297 120.216 86.2797 119.904 85.9797 119.652C85.6917 119.4 85.3377 119.202 84.9177 119.058C84.4977 118.902 84.0717 118.74 83.6397 118.572C83.2197 118.404 82.8597 118.14 82.5597 117.78C82.2717 117.408 82.1277 116.946 82.1277 116.394C82.1277 115.578 82.4157 114.93 82.9917 114.45C83.5677 113.958 84.3477 113.712 85.3317 113.712C86.3157 113.712 87.1077 113.886 87.7077 114.234L87.3297 115.44C86.6337 115.2 85.9917 115.08 85.4037 115.08C84.8157 115.08 84.3777 115.188 84.0897 115.404C83.8017 115.62 83.6577 115.914 83.6577 116.286C83.6577 116.646 83.8077 116.946 84.1077 117.186C84.4077 117.426 84.7677 117.618 85.1877 117.762C85.6197 117.906 86.0457 118.068 86.4657 118.248C86.8857 118.416 87.2457 118.68 87.5457 119.04C87.8457 119.4 87.9957 119.85 87.9957 120.39C87.9957 121.182 87.7017 121.854 87.1137 122.406C86.5257 122.958 85.6857 123.234 84.5937 123.234C84.0897 123.234 83.5797 123.168 83.0637 123.036C82.5597 122.904 82.1817 122.748 81.9297 122.568L82.3437 121.344ZM93.4341 123.234C92.0901 123.234 91.0881 122.778 90.4281 121.866C89.7801 120.942 89.4561 119.79 89.4561 118.41C89.4561 117.018 89.8041 115.89 90.5001 115.026C91.1961 114.15 92.1501 113.712 93.3621 113.712C94.3821 113.712 95.1561 114 95.6841 114.576C96.2241 115.14 96.4941 115.89 96.4941 116.826C96.4941 117.246 96.4041 117.786 96.2241 118.446H90.9321C90.9561 119.466 91.1781 120.294 91.5981 120.93C92.0181 121.566 92.6421 121.884 93.4701 121.884C94.3101 121.884 95.1021 121.716 95.8461 121.38L96.2601 122.496C95.3961 122.988 94.4541 123.234 93.4341 123.234ZM95.0181 117.132C95.0181 116.484 94.8861 115.974 94.6221 115.602C94.3581 115.23 93.9921 115.044 93.5241 115.044C93.0561 115.044 92.6661 115.128 92.3541 115.296C92.0541 115.452 91.8201 115.656 91.6521 115.908C91.3641 116.388 91.1841 116.832 91.1121 117.24L95.0181 117.276V117.132ZM100.069 123H98.4486V113.892H99.7986L99.9786 115.242C100.195 114.882 100.549 114.54 101.041 114.216C101.545 113.88 102.115 113.712 102.751 113.712C103.099 113.712 103.363 113.742 103.543 113.802L103.219 115.098C103.111 115.086 102.955 115.08 102.751 115.08C101.443 115.08 100.549 115.554 100.069 116.502V123ZM110.029 113.91H111.703L108.787 123H106.969L104.071 113.892H105.817L107.887 121.38L110.029 113.91ZM115.106 123.234C114.326 123.234 113.702 123.006 113.234 122.55C112.778 122.094 112.55 121.482 112.55 120.714C112.55 120.21 112.658 119.784 112.874 119.436C113.09 119.088 113.372 118.83 113.72 118.662C114.344 118.362 114.998 118.212 115.682 118.212C116.366 118.212 117.002 118.242 117.59 118.302V116.898C117.59 116.202 117.47 115.728 117.229 115.476C117.002 115.212 116.558 115.08 115.898 115.08C115.238 115.08 114.452 115.242 113.54 115.566L113.162 114.432C113.51 114.216 113.966 114.042 114.53 113.91C115.106 113.778 115.604 113.712 116.024 113.712C117.188 113.712 118.01 113.964 118.49 114.468C118.97 114.972 119.21 115.818 119.21 117.006V121.38C119.21 121.8 119.354 122.01 119.642 122.01C119.834 122.01 120.098 121.956 120.434 121.848L120.704 122.856C120.296 123.12 119.768 123.252 119.12 123.252C118.472 123.252 118.004 122.946 117.716 122.334C117.452 122.586 117.08 122.802 116.6 122.982C116.132 123.15 115.634 123.234 115.106 123.234ZM115.448 121.956C116.204 121.956 116.918 121.74 117.59 121.308V119.22C117.302 119.172 116.834 119.148 116.186 119.148C114.782 119.148 114.074 119.616 114.062 120.552C114.062 121.488 114.524 121.956 115.448 121.956ZM125.568 121.344C126.36 121.692 127.086 121.866 127.746 121.866C128.406 121.866 128.886 121.746 129.186 121.506C129.498 121.254 129.654 120.948 129.654 120.588C129.654 120.216 129.504 119.904 129.204 119.652C128.916 119.4 128.562 119.202 128.142 119.058C127.722 118.902 127.296 118.74 126.864 118.572C126.444 118.404 126.084 118.14 125.784 117.78C125.496 117.408 125.352 116.946 125.352 116.394C125.352 115.578 125.64 114.93 126.216 114.45C126.792 113.958 127.572 113.712 128.556 113.712C129.54 113.712 130.332 113.886 130.932 114.234L130.554 115.44C129.858 115.2 129.216 115.08 128.628 115.08C128.04 115.08 127.602 115.188 127.314 115.404C127.026 115.62 126.882 115.914 126.882 116.286C126.882 116.646 127.032 116.946 127.332 117.186C127.632 117.426 127.992 117.618 128.412 117.762C128.844 117.906 129.27 118.068 129.69 118.248C130.11 118.416 130.47 118.68 130.77 119.04C131.07 119.4 131.22 119.85 131.22 120.39C131.22 121.182 130.926 121.854 130.338 122.406C129.75 122.958 128.91 123.234 127.818 123.234C127.314 123.234 126.804 123.168 126.288 123.036C125.784 122.904 125.406 122.748 125.154 122.568L125.568 121.344ZM136.659 123.234C135.315 123.234 134.313 122.778 133.653 121.866C133.005 120.942 132.681 119.79 132.681 118.41C132.681 117.018 133.029 115.89 133.725 115.026C134.421 114.15 135.375 113.712 136.587 113.712C137.607 113.712 138.381 114 138.909 114.576C139.449 115.14 139.719 115.89 139.719 116.826C139.719 117.246 139.629 117.786 139.449 118.446H134.157C134.181 119.466 134.403 120.294 134.823 120.93C135.243 121.566 135.867 121.884 136.695 121.884C137.535 121.884 138.327 121.716 139.071 121.38L139.485 122.496C138.621 122.988 137.679 123.234 136.659 123.234ZM138.243 117.132C138.243 116.484 138.111 115.974 137.847 115.602C137.583 115.23 137.217 115.044 136.749 115.044C136.281 115.044 135.891 115.128 135.579 115.296C135.279 115.452 135.045 115.656 134.877 115.908C134.589 116.388 134.409 116.832 134.337 117.24L138.243 117.276V117.132ZM148.531 116.826V123H146.911V116.844C146.911 116.292 146.839 115.86 146.695 115.548C146.551 115.236 146.257 115.08 145.813 115.08C145.381 115.08 144.925 115.194 144.445 115.422C143.965 115.65 143.581 115.938 143.293 116.286V123H141.673V113.892H143.023L143.203 114.99C143.539 114.666 143.977 114.372 144.517 114.108C145.069 113.844 145.603 113.712 146.119 113.712C147.211 113.712 147.925 114.156 148.261 115.044C148.621 114.708 149.089 114.402 149.665 114.126C150.241 113.85 150.781 113.712 151.285 113.712C152.893 113.712 153.697 114.726 153.697 116.754V123H152.077V116.844C152.077 116.28 152.005 115.848 151.861 115.548C151.717 115.236 151.435 115.08 151.015 115.08C150.595 115.08 150.151 115.194 149.683 115.422C149.215 115.65 148.819 115.914 148.495 116.214C148.519 116.358 148.531 116.562 148.531 116.826ZM163.629 123.27C162.417 123.27 161.415 122.874 160.623 122.082C159.831 121.278 159.435 120.084 159.435 118.5C159.435 116.904 159.831 115.71 160.623 114.918C161.415 114.114 162.387 113.712 163.539 113.712C164.355 113.712 165.099 113.886 165.771 114.234L165.285 115.386C164.649 115.182 164.079 115.08 163.575 115.08C162.867 115.08 162.273 115.35 161.793 115.89C161.325 116.43 161.091 117.294 161.091 118.482C161.091 120.75 162.021 121.884 163.881 121.884C164.409 121.884 164.967 121.806 165.555 121.65L165.825 122.838C165.057 123.126 164.325 123.27 163.629 123.27ZM173.438 122.082C172.742 122.85 171.83 123.234 170.702 123.234C169.574 123.234 168.674 122.856 168.002 122.1C167.33 121.344 166.994 120.144 166.994 118.5C166.994 116.844 167.342 115.632 168.038 114.864C168.746 114.096 169.664 113.712 170.792 113.712C171.92 113.712 172.814 114.09 173.474 114.846C174.146 115.602 174.482 116.808 174.482 118.464C174.482 120.108 174.134 121.314 173.438 122.082ZM170.756 115.044C169.352 115.044 168.65 116.19 168.65 118.482C168.65 120.762 169.346 121.902 170.738 121.902C171.314 121.902 171.806 121.632 172.214 121.092C172.622 120.552 172.826 119.652 172.826 118.392C172.826 117.132 172.646 116.262 172.286 115.782C171.938 115.29 171.428 115.044 170.756 115.044ZM183.389 116.826V123H181.769V116.844C181.769 116.292 181.697 115.86 181.553 115.548C181.409 115.236 181.115 115.08 180.671 115.08C180.239 115.08 179.783 115.194 179.303 115.422C178.823 115.65 178.439 115.938 178.151 116.286V123H176.531V113.892H177.881L178.061 114.99C178.397 114.666 178.835 114.372 179.375 114.108C179.927 113.844 180.461 113.712 180.977 113.712C182.069 113.712 182.783 114.156 183.119 115.044C183.479 114.708 183.947 114.402 184.523 114.126C185.099 113.85 185.639 113.712 186.143 113.712C187.751 113.712 188.555 114.726 188.555 116.754V123H186.935V116.844C186.935 116.28 186.863 115.848 186.719 115.548C186.575 115.236 186.293 115.08 185.873 115.08C185.453 115.08 185.009 115.194 184.541 115.422C184.073 115.65 183.677 115.914 183.353 116.214C183.377 116.358 183.389 116.562 183.389 116.826ZM194.293 121.866C195.793 121.866 196.543 120.672 196.543 118.284C196.543 116.148 195.937 115.08 194.725 115.08C194.041 115.08 193.321 115.344 192.565 115.872V121.614C193.165 121.782 193.741 121.866 194.293 121.866ZM192.439 114.63C193.231 114.018 194.119 113.712 195.103 113.712C196.087 113.712 196.855 114.12 197.407 114.936C197.959 115.752 198.235 116.862 198.235 118.266C198.235 121.578 196.915 123.234 194.275 123.234C193.651 123.234 193.081 123.114 192.565 122.874V126.852L190.945 127.032V113.874H192.313L192.439 114.63ZM200.279 110.4H201.917V121.164C201.917 121.632 202.133 121.866 202.565 121.866C202.901 121.866 203.255 121.806 203.627 121.686L203.897 122.874C203.405 123.114 202.799 123.234 202.079 123.234C200.879 123.234 200.279 122.55 200.279 121.182V110.4ZM206.662 123H205.024V113.964L206.662 113.802V123ZM204.7 111.21C204.7 110.91 204.808 110.658 205.024 110.454C205.24 110.238 205.498 110.13 205.798 110.13C206.098 110.13 206.35 110.238 206.554 110.454C206.77 110.658 206.878 110.91 206.878 111.21C206.878 111.51 206.77 111.774 206.554 112.002C206.35 112.218 206.098 112.326 205.798 112.326C205.498 112.326 205.24 112.218 205.024 112.002C204.808 111.774 204.7 111.51 204.7 111.21ZM212.847 123.27C211.635 123.27 210.633 122.874 209.841 122.082C209.049 121.278 208.653 120.084 208.653 118.5C208.653 116.904 209.049 115.71 209.841 114.918C210.633 114.114 211.605 113.712 212.757 113.712C213.573 113.712 214.317 113.886 214.989 114.234L214.503 115.386C213.867 115.182 213.297 115.08 212.793 115.08C212.085 115.08 211.491 115.35 211.011 115.89C210.543 116.43 210.309 117.294 210.309 118.482C210.309 120.75 211.239 121.884 213.099 121.884C213.627 121.884 214.185 121.806 214.773 121.65L215.043 122.838C214.275 123.126 213.543 123.27 212.847 123.27ZM218.711 123.234C217.931 123.234 217.307 123.006 216.839 122.55C216.383 122.094 216.155 121.482 216.155 120.714C216.155 120.21 216.263 119.784 216.479 119.436C216.695 119.088 216.977 118.83 217.325 118.662C217.949 118.362 218.603 118.212 219.287 118.212C219.971 118.212 220.607 118.242 221.195 118.302V116.898C221.195 116.202 221.075 115.728 220.835 115.476C220.607 115.212 220.163 115.08 219.503 115.08C218.843 115.08 218.057 115.242 217.145 115.566L216.767 114.432C217.115 114.216 217.571 114.042 218.135 113.91C218.711 113.778 219.209 113.712 219.629 113.712C220.793 113.712 221.615 113.964 222.095 114.468C222.575 114.972 222.815 115.818 222.815 117.006V121.38C222.815 121.8 222.959 122.01 223.247 122.01C223.439 122.01 223.703 121.956 224.039 121.848L224.309 122.856C223.901 123.12 223.373 123.252 222.725 123.252C222.077 123.252 221.609 122.946 221.321 122.334C221.057 122.586 220.685 122.802 220.205 122.982C219.737 123.15 219.239 123.234 218.711 123.234ZM219.053 121.956C219.809 121.956 220.523 121.74 221.195 121.308V119.22C220.907 119.172 220.439 119.148 219.791 119.148C218.387 119.148 217.679 119.616 217.667 120.552C217.667 121.488 218.129 121.956 219.053 121.956ZM230.074 125.034C230.074 125.982 229.438 126.834 228.166 127.59L227.428 126.726C228.268 126.138 228.688 125.544 228.688 124.944C228.688 124.644 228.58 124.29 228.364 123.882H229.786C229.978 124.29 230.074 124.674 230.074 125.034ZM229.3 123.27C228.088 123.27 227.086 122.874 226.294 122.082C225.502 121.278 225.106 120.084 225.106 118.5C225.106 116.904 225.502 115.71 226.294 114.918C227.086 114.114 228.058 113.712 229.21 113.712C230.026 113.712 230.77 113.886 231.442 114.234L230.956 115.386C230.32 115.182 229.75 115.08 229.246 115.08C228.538 115.08 227.944 115.35 227.464 115.89C226.996 116.43 226.762 117.294 226.762 118.482C226.762 120.75 227.692 121.884 229.552 121.884C230.08 121.884 230.638 121.806 231.226 121.65L231.496 122.838C230.728 123.126 229.996 123.27 229.3 123.27ZM233.076 111.66C233.304 111.3 233.574 111 233.886 110.76C234.198 110.508 234.498 110.382 234.786 110.382C235.074 110.382 235.494 110.514 236.046 110.778C236.61 111.03 237.006 111.156 237.234 111.156C237.474 111.156 237.816 110.904 238.26 110.4L239.034 111.048C238.794 111.456 238.494 111.792 238.134 112.056C237.774 112.308 237.444 112.434 237.144 112.434C236.844 112.434 236.43 112.308 235.902 112.056C235.374 111.792 234.996 111.66 234.768 111.66C234.54 111.66 234.24 111.882 233.868 112.326L233.076 111.66ZM235.164 123.234C234.384 123.234 233.76 123.006 233.292 122.55C232.836 122.094 232.608 121.482 232.608 120.714C232.608 120.21 232.716 119.784 232.932 119.436C233.148 119.088 233.43 118.83 233.778 118.662C234.402 118.362 235.056 118.212 235.74 118.212C236.424 118.212 237.06 118.242 237.648 118.302V116.898C237.648 116.202 237.528 115.728 237.288 115.476C237.06 115.212 236.616 115.08 235.956 115.08C235.296 115.08 234.51 115.242 233.598 115.566L233.22 114.432C233.568 114.216 234.024 114.042 234.588 113.91C235.164 113.778 235.662 113.712 236.082 113.712C237.246 113.712 238.068 113.964 238.548 114.468C239.028 114.972 239.268 115.818 239.268 117.006V121.38C239.268 121.8 239.412 122.01 239.7 122.01C239.892 122.01 240.156 121.956 240.492 121.848L240.762 122.856C240.354 123.12 239.826 123.252 239.178 123.252C238.53 123.252 238.062 122.946 237.774 122.334C237.51 122.586 237.138 122.802 236.658 122.982C236.19 123.15 235.692 123.234 235.164 123.234ZM235.506 121.956C236.262 121.956 236.976 121.74 237.648 121.308V119.22C237.36 119.172 236.892 119.148 236.244 119.148C234.84 119.148 234.132 119.616 234.12 120.552C234.12 121.488 234.582 121.956 235.506 121.956ZM248.04 122.082C247.344 122.85 246.432 123.234 245.304 123.234C244.176 123.234 243.276 122.856 242.604 122.1C241.932 121.344 241.596 120.144 241.596 118.5C241.596 116.844 241.944 115.632 242.64 114.864C243.348 114.096 244.266 113.712 245.394 113.712C246.522 113.712 247.416 114.09 248.076 114.846C248.748 115.602 249.084 116.808 249.084 118.464C249.084 120.108 248.736 121.314 248.04 122.082ZM245.358 115.044C243.954 115.044 243.252 116.19 243.252 118.482C243.252 120.762 243.948 121.902 245.34 121.902C245.916 121.902 246.408 121.632 246.816 121.092C247.224 120.552 247.428 119.652 247.428 118.392C247.428 117.132 247.248 116.262 246.888 115.782C246.54 115.29 246.03 115.044 245.358 115.044Z" fill="#FF9000"/>
<rect x="3" y="96.7846" width="242" height="2.41256" fill="#FF9000"/>
<path d="M68.0117 54.2773H58.0977V74H49.2031V22.8125H67.2031C73.1094 22.8125 77.668 24.1367 80.8789 26.7852C84.0898 29.4336 85.6953 33.2656 85.6953 38.2812C85.6953 41.7031 84.8633 44.5742 83.1992 46.8945C81.5586 49.1914 79.2617 50.9609 76.3086 52.2031L87.8047 73.543V74H78.2773L68.0117 54.2773ZM58.0977 47.1406H67.2383C70.2383 47.1406 72.582 46.3906 74.2695 44.8906C75.957 43.3672 76.8008 41.293 76.8008 38.668C76.8008 35.9258 76.0156 33.8047 74.4453 32.3047C72.8984 30.8047 70.5781 30.0312 67.4844 29.9844H58.0977V47.1406ZM131.574 22.8125V57.0195C131.574 62.457 129.828 66.7695 126.336 69.957C122.867 73.1211 118.238 74.7031 112.449 74.7031C106.59 74.7031 101.938 73.1445 98.4922 70.0273C95.0469 66.8867 93.3242 62.5391 93.3242 56.9844V22.8125H102.184V57.0547C102.184 60.4766 103.051 63.0898 104.785 64.8945C106.52 66.6992 109.074 67.6016 112.449 67.6016C119.293 67.6016 122.715 63.9922 122.715 56.7734V22.8125H131.574ZM167.855 60.8164C167.855 58.5664 167.059 56.832 165.465 55.6133C163.895 54.3945 161.047 53.1641 156.922 51.9219C152.797 50.6797 149.516 49.2969 147.078 47.7734C142.414 44.8438 140.082 41.0234 140.082 36.3125C140.082 32.1875 141.758 28.7891 145.109 26.1172C148.484 23.4453 152.855 22.1094 158.223 22.1094C161.785 22.1094 164.961 22.7656 167.75 24.0781C170.539 25.3906 172.73 27.2656 174.324 29.7031C175.918 32.1172 176.715 34.8008 176.715 37.7539H167.855C167.855 35.082 167.012 32.9961 165.324 31.4961C163.66 29.9727 161.27 29.2109 158.152 29.2109C155.246 29.2109 152.984 29.832 151.367 31.0742C149.773 32.3164 148.977 34.0508 148.977 36.2773C148.977 38.1523 149.844 39.7227 151.578 40.9883C153.312 42.2305 156.172 43.4492 160.156 44.6445C164.141 45.8164 167.34 47.1641 169.754 48.6875C172.168 50.1875 173.938 51.9219 175.062 53.8906C176.188 55.8359 176.75 58.1211 176.75 60.7461C176.75 65.0117 175.109 68.4102 171.828 70.9414C168.57 73.4492 164.141 74.7031 158.539 74.7031C154.836 74.7031 151.426 74.0234 148.309 72.6641C145.215 71.2812 142.801 69.3828 141.066 66.9688C139.355 64.5547 138.5 61.7422 138.5 58.5312H147.395C147.395 61.4375 148.355 63.6875 150.277 65.2812C152.199 66.875 154.953 67.6719 158.539 67.6719C161.633 67.6719 163.953 67.0508 165.5 65.8086C167.07 64.543 167.855 62.8789 167.855 60.8164ZM214.051 52.3086H193.449V74H184.555V22.8125H217.074V29.9844H193.449V45.207H214.051V52.3086Z" fill="#FF9000"/>
<rect x="3" y="0.282135" width="242" height="2.41256" fill="#FF9000"/>
</svg>
